<?xml version="1.0" standalone="no"?>
<!DOCTYPE svg PUBLIC "-//W3C//DTD SVG 20010904//EN"
 "http://www.w3.org/TR/2001/REC-SVG-20010904/DTD/svg10.dtd">
<svg version="1.0" xmlns="http://www.w3.org/2000/svg"
 width="1650.000000pt" height="1650.000000pt" viewBox="0 0 1650.000000 1650.000000"
 preserveAspectRatio="xMidYMid meet">
<metadata>
Created by potrace 1.11, written by Peter Selinger 2001-2013
</metadata>
<g transform="translate(0.000000,1650.000000) scale(0.100000,-0.100000)"
fill="#000000" stroke="none">
<path d="M14600 10252 c-304 -666 -733 -1533 -1052 -2127 -33 -60 -60 -113
-61 -118 -2 -7 484 -189 489 -184 2 1 55 113 120 247 198 417 424 873 430 868
2 -3 65 -328 139 -723 73 -394 135 -718 137 -719 1 -2 105 -47 230 -100 289
-123 619 -273 960 -436 147 -70 268 -126 268 -124 0 3 -29 120 -65 262 -92
369 -195 822 -339 1487 -228 1055 -305 1441 -352 1758 l-18 119 -40 -7 c-248
-40 -408 -44 -606 -15 -74 11 -137 20 -140 20 -3 -1 -48 -94 -100 -208z"/>
<path d="M2270 10432 c0 -60 -93 -686 -165 -1107 -171 -1004 -365 -1955 -655
-3203 -12 -51 -20 -96 -17 -99 3 -3 106 3 229 13 293 25 666 25 921 0 103 -10
191 -16 194 -12 4 3 30 174 59 378 63 447 82 560 181 1093 l76 410 327 -3
c433 -6 691 14 915 69 290 72 488 176 676 356 105 101 171 184 237 298 39 67
117 244 110 250 -13 11 -921 55 -1138 55 l-135 0 -27 -78 c-41 -115 -94 -198
-183 -288 -143 -143 -286 -195 -542 -198 -83 0 -154 2 -157 5 -3 3 65 359 151
792 142 710 160 786 178 791 41 11 281 6 330 -8 187 -49 281 -184 304 -434 4
-51 10 -94 12 -96 2 -2 69 0 149 5 190 11 794 29 988 29 l153 0 -7 53 c-65
537 -390 821 -1044 912 -203 29 -585 31 -975 5 -376 -25 -676 -23 -960 5 -176
17 -185 18 -185 7z"/>
<path d="M5690 10435 c0 -2 29 -149 64 -327 35 -178 78 -400 96 -494 l32 -172
162 -6 c314 -13 564 -27 849 -47 159 -11 290 -19 292 -17 1 2 -6 75 -16 163
-25 221 -67 658 -75 788 -4 59 -11 110 -15 113 -4 2 -79 -3 -166 -13 -225 -24
-836 -24 -1049 0 -164 18 -174 19 -174 12z"/>
<path d="M8924 10418 c-17 -56 -212 -475 -375 -807 -98 -200 -176 -367 -173
-372 3 -5 15 -9 28 -9 12 0 143 -18 291 -41 220 -33 270 -38 280 -27 7 7 68
108 135 223 160 273 276 461 482 784 93 145 167 265 165 268 -3 2 -56 -4 -118
-14 -155 -24 -489 -24 -604 0 -101 21 -102 21 -111 -5z"/>
<path d="M10116 10425 c-3 -9 -6 -38 -6 -65 0 -93 -32 -296 -71 -449 -21 -85
-37 -156 -35 -158 2 -2 120 5 262 16 298 24 600 41 727 41 75 0 87 -2 87 -17
0 -9 -41 -243 -91 -520 -51 -277 -89 -506 -87 -509 3 -3 154 -43 334 -89 181
-46 437 -113 569 -151 132 -37 251 -68 264 -68 24 -1 25 4 112 429 84 414 168
808 190 889 l11 39 156 -7 c86 -4 297 -15 467 -26 171 -10 333 -20 360 -22
l50 -2 12 124 c16 159 47 317 89 450 18 57 31 106 29 108 -2 2 -68 -1 -147 -7
-333 -25 -847 -33 -1813 -28 -879 5 -1103 11 -1381 33 -71 5 -82 4 -88 -11z"/>
<path d="M4540 9349 c-332 -14 -1098 -70 -1105 -82 -1 -1 -13 -60 -27 -131
l-26 -129 317 7 c336 7 853 -4 1291 -29 2960 -168 6087 -1001 8980 -2390 271
-130 752 -377 985 -505 l130 -71 205 18 c274 23 757 23 998 0 95 -9 179 -17
187 -17 11 0 9 15 -8 73 -11 39 -55 196 -97 347 l-76 275 -199 100 c-1002 504
-2368 1042 -3613 1424 -2154 662 -4271 1029 -6402 1111 -296 11 -1255 11
-1540 -1z"/>
<path d="M1885 9043 c-312 -65 -431 -92 -645 -144 -274 -67 -502 -128 -725
-195 -216 -66 -489 -155 -498 -164 -5 -4 99 19 230 51 444 110 991 213 1475
279 121 16 222 31 223 32 3 4 25 132 25 146 0 14 5 14 -85 -5z"/>
<path d="M6000 8800 c0 -12 20 -141 45 -288 65 -390 137 -858 194 -1262 53
-373 151 -1150 151 -1193 0 -14 4 -29 10 -32 5 -3 58 1 117 10 194 29 310 30
506 5 98 -12 179 -21 181 -19 1 2 60 117 131 254 317 620 567 1071 977 1762
114 194 208 355 208 357 0 13 -513 121 -534 113 -7 -3 -35 -45 -61 -94 -237
-443 -490 -892 -496 -881 -3 7 -9 40 -13 73 -8 75 -123 934 -134 995 -7 43 -8
45 -52 52 -245 42 -820 122 -1065 148 -55 6 -115 13 -132 16 -29 4 -33 2 -33
-16z"/>
<path d="M10705 7788 c-2 -7 -31 -148 -65 -313 -82 -400 -196 -915 -269 -1210
-33 -132 -58 -242 -55 -244 2 -2 104 5 226 15 281 24 668 24 928 1 252 -23
240 -24 240 16 0 87 66 578 136 1012 25 154 46 290 47 303 2 21 -10 28 -118
68 -310 116 -1030 364 -1057 364 -5 0 -10 -6 -13 -12z"/>
<path d="M12815 6788 c-59 -104 -183 -318 -276 -475 -93 -158 -167 -288 -165
-291 3 -2 62 4 133 14 163 24 401 24 533 1 52 -9 102 -17 111 -17 11 0 31 36
64 118 26 64 95 224 153 355 57 131 102 240 99 243 -5 5 -494 224 -529 237
-13 4 -38 -34 -123 -185z"/>
</g>
</svg>
